<svg class="animated" id="freepik_stories-teacher" xmlns="http://www.w3.org/2000/svg" viewBox="0 0 500 500" version="1.1" xmlns:xlink="http://www.w3.org/1999/xlink" xmlns:svgjs="http://svgjs.com/svgjs"><style>svg#freepik_stories-teacher:not(.animated) .animable {opacity: 0;}svg#freepik_stories-teacher.animated #freepik--Board--inject-27 {animation: 1.5s Infinite  linear floating;animation-delay: 0s;}svg#freepik_stories-teacher.animated #freepik--Teacher--inject-27 {animation: 1.5s Infinite  linear floating;animation-delay: 0s;}svg#freepik_stories-teacher.animated #freepik--Table--inject-27 {animation: 1.5s Infinite  linear floating;animation-delay: 0s;}svg#freepik_stories-teacher.animated #freepik--Student--inject-27 {animation: 1.5s Infinite  linear floating;animation-delay: 0s;}svg#freepik_stories-teacher.animated #freepik--Chair--inject-27 {animation: 1.5s Infinite  linear floating;animation-delay: 0s;}            @keyframes floating {                0% {                    opacity: 1;                    transform: translateY(0px);                }                50% {                    transform: translateY(-10px);                }                100% {                    opacity: 1;                    transform: translateY(0px);                }            }        .animator-hidden { display: none; }</style><g id="freepik--background-complete--inject-27" class="animable animator-hidden" style="transform-origin: 250px 228.23px;"><rect y="382.4" width="500" height="0.25" style="fill: rgb(235, 235, 235); transform-origin: 250px 382.525px;" id="elg8muj6cilnr" class="animable"></rect><rect x="416.78" y="398.49" width="33.12" height="0.25" style="fill: rgb(235, 235, 235); transform-origin: 433.34px 398.615px;" id="elb4035xwpzsk" class="animable"></rect><rect x="322.53" y="401.21" width="8.69" height="0.25" style="fill: rgb(235, 235, 235); transform-origin: 326.875px 401.335px;" id="elv7tborgp6ei" class="animable"></rect><rect x="396.59" y="389.21" width="19.19" height="0.25" style="fill: rgb(235, 235, 235); transform-origin: 406.185px 389.335px;" id="el7bhsac5xbjy" class="animable"></rect><rect x="52.46" y="390.89" width="43.19" height="0.25" style="fill: rgb(235, 235, 235); transform-origin: 74.055px 391.015px;" id="el0afimqpsnhkv" class="animable"></rect><rect x="104.56" y="390.89" width="6.33" height="0.25" style="fill: rgb(235, 235, 235); transform-origin: 107.725px 391.015px;" id="elex2nj02jtz7" class="animable"></rect><rect x="131.47" y="395.11" width="93.68" height="0.25" style="fill: rgb(235, 235, 235); transform-origin: 178.31px 395.235px;" id="eloc2rc8r349p" class="animable"></rect><path d="M237,337.8H43.91a5.71,5.71,0,0,1-5.7-5.71V60.66A5.71,5.71,0,0,1,43.91,55H237a5.71,5.71,0,0,1,5.71,5.71V332.09A5.71,5.71,0,0,1,237,337.8ZM43.91,55.2a5.46,5.46,0,0,0-5.45,5.46V332.09a5.46,5.46,0,0,0,5.45,5.46H237a5.47,5.47,0,0,0,5.46-5.46V60.66A5.47,5.47,0,0,0,237,55.2Z" style="fill: rgb(235, 235, 235); transform-origin: 140.46px 196.4px;" id="elaty5pgjeyzb" class="animable"></path><path d="M453.31,337.8H260.21a5.72,5.72,0,0,1-5.71-5.71V60.66A5.72,5.72,0,0,1,260.21,55h193.1A5.71,5.71,0,0,1,459,60.66V332.09A5.71,5.71,0,0,1,453.31,337.8ZM260.21,55.2a5.47,5.47,0,0,0-5.46,5.46V332.09a5.47,5.47,0,0,0,5.46,5.46h193.1a5.47,5.47,0,0,0,5.46-5.46V60.66a5.47,5.47,0,0,0-5.46-5.46Z" style="fill: rgb(235, 235, 235); transform-origin: 356.75px 196.4px;" id="elcobrdcxtoeh" class="animable"></path><g id="elwtnsgrt5zkk"><circle cx="417.94" cy="93.74" r="23.55" style="fill: rgb(224, 224, 224); transform-origin: 417.94px 93.74px; transform: rotate(-76.72deg);" class="animable"></circle></g><g id="elpegviefqj2"><circle cx="417.94" cy="93.74" r="20.03" style="fill: rgb(240, 240, 240); transform-origin: 417.94px 93.74px; transform: rotate(-80.78deg);" class="animable"></circle></g><polyline points="417 80 417 94 407.72 88.75" style="fill: rgb(240, 240, 240); stroke: rgb(224, 224, 224); stroke-linecap: round; stroke-linejoin: round; stroke-width: 2px; transform-origin: 412.36px 87px;" id="el9i463qyc81" class="animable"></polyline><rect x="62.04" y="109.06" width="68.62" height="124.62" style="fill: rgb(230, 230, 230); transform-origin: 96.35px 171.37px;" id="elhkhy1t2n1hm" class="animable"></rect><rect x="67" y="114" width="59" height="115" style="fill: rgb(240, 240, 240); transform-origin: 96.5px 171.5px;" id="ellm7cnizwseg" class="animable"></rect><polygon points="96.11 114 67 223.02 67 164 80.32 114 96.11 114" style="fill: rgb(250, 250, 250); transform-origin: 81.555px 168.51px;" id="el90f4jk7ft6a" class="animable"></polygon><polygon points="109.12 114 78.42 229 72.63 229 103.33 114 109.12 114" style="fill: rgb(250, 250, 250); transform-origin: 90.875px 171.5px;" id="elc7jztm9rszc" class="animable"></polygon><rect x="64" y="194.39" width="64.5" height="4" style="fill: rgb(230, 230, 230); transform-origin: 96.25px 196.39px;" id="elo5xbqqq29di" class="animable"></rect><path d="M424.26,270.73s1.57-10.4-6-17.06-6.92-10.64-4.75-11.15,4.17,6.15,7.5,8c0,0,.11-9.5-3.28-13s-5.16-12.52-1.94-12.67,3.55,5.35,4.22,9.26,4.26,9.41,4.26,9.41.7-8.5,2.89-12-3.65-11.5-1.4-15,6.25,3.17,5.92,10.67-5.34,15.5-4.17,23.33c0,0,2.21-5.5,4.19-6s4-4.14,5.31-5.49,3,3.32,0,7.66-10.67,15.92-9.5,25.29Z" style="fill: rgb(230, 230, 230); transform-origin: 425.373px 243.771px;" id="elvb64n7ep3j" class="animable"></path><path d="M419.72,266l-2.48,15.58a7.92,7.92,0,0,0,7.82,9.17h2.65a7.92,7.92,0,0,0,7.83-9.17L433.06,266Z" style="fill: rgb(230, 230, 230); transform-origin: 426.39px 278.375px;" id="elpecuajas0f" class="animable"></path><rect x="424.26" y="292.54" width="5.78" height="90.78" style="fill: rgb(224, 224, 224); transform-origin: 427.15px 337.93px;" id="elcsaza1n3fq" class="animable"></rect><rect x="403.74" y="292.54" width="5.78" height="90.78" style="fill: rgb(230, 230, 230); transform-origin: 406.63px 337.93px;" id="elulkp8wcyvrp" class="animable"></rect><rect x="444.77" y="292.54" width="5.78" height="90.78" style="fill: rgb(230, 230, 230); transform-origin: 447.66px 337.93px;" id="elgra3tn8eeb" class="animable"></rect><rect x="400.31" y="286.74" width="53.67" height="9.66" style="fill: rgb(230, 230, 230); transform-origin: 427.145px 291.57px;" id="elx5zz5nfzmpe" class="animable"></rect></g><g id="freepik--Shadow--inject-27" class="animable animator-hidden" style="transform-origin: 250px 416.24px;"><ellipse id="freepik--path--inject-27" cx="250" cy="416.24" rx="193.89" ry="11.32" style="fill: rgb(245, 245, 245); transform-origin: 250px 416.24px;" class="animable"></ellipse></g><g id="freepik--Board--inject-27" class="animable" style="transform-origin: 274.5px 238px;"><polygon points="350 377.52 350 267 339 267 339 377.52 332 379.67 332 383 357 383 357 379.67 350 377.52" style="fill: rgb(46, 53, 58); transform-origin: 344.5px 325px;" id="elnqggfau8hrd" class="animable"></polygon><polygon points="210 267 199 267 199 377.52 192 379.67 192 383 217 383 217 379.67 210 377.52 210 267" style="fill: rgb(46, 53, 58); transform-origin: 204.5px 325px;" id="elyfcvjq57q1" class="animable"></polygon><g id="el4sunylellq7"><g style="opacity: 0.2; isolation: isolate; transform-origin: 274.5px 331.5px;" class="animable"><polygon points="350 280 339 280 339 377.52 332 379.67 332 383 357 383 357 379.67 350 377.52 350 280" style="fill: rgb(255, 255, 255); transform-origin: 344.5px 331.5px;" id="elinnm1jfrqd" class="animable"></polygon><polygon points="210 280 199 280 199 377.52 192 379.67 192 383 217 383 217 379.67 210 377.52 210 280" style="fill: rgb(255, 255, 255); transform-origin: 204.5px 331.5px;" id="elvzil9bjfabm" class="animable"></polygon></g></g><g id="el9qje0p98oy5"><rect x="185.5" y="72.5" width="178" height="219" style="fill: rgb(46, 53, 58); transform-origin: 274.5px 182px; transform: rotate(90deg);" class="animable"></rect></g><g id="el1u3rylr0bm7"><rect x="185.5" y="72.5" width="178" height="219" style="fill: rgb(255, 255, 255); opacity: 0.2; isolation: isolate; transform-origin: 274.5px 182px; transform: rotate(90deg);" class="animable"></rect></g><rect x="169.87" y="97.94" width="209.26" height="168.02" style="fill: rgb(255, 215, 83); transform-origin: 274.5px 181.95px;" id="elv94zkb7ia" class="animable"></rect><g id="elleh4vv98lq"><rect x="169.87" y="97.94" width="209.26" height="168.02" style="fill: rgb(255, 255, 255); opacity: 0.3; isolation: isolate; transform-origin: 274.5px 181.95px;" class="animable"></rect></g><polygon points="193.5 113 193.5 158.5 266.01 158.5 193.5 113" style="fill: none; stroke: rgb(38, 50, 56); stroke-miterlimit: 10; transform-origin: 229.755px 135.75px;" id="elh927o51wfvm" class="animable"></polygon><polyline points="197.14 158.62 197.14 154.9 193.42 154.9" style="fill: none; stroke: rgb(38, 50, 56); stroke-miterlimit: 10; stroke-width: 0.793303px; transform-origin: 195.28px 156.76px;" id="elh2s5rlbpo6d" class="animable"></polyline><text transform="translate(228.99 129.46)" style="font-size:9.51963996887207px;fill:#263238;font-family:Cabin-Regular, Cabin">b</text><text transform="translate(193.82 198.17)" style="font-size:9.51963996887207px;fill:#263238;font-family:Cabin-Regular, Cabin">b</text><text transform="translate(219.01 167.79)" style="font-size:9.51963996887207px;fill:#263238;font-family:Cabin-Regular, Cabin">c</text><text transform="translate(193.82 212.14)" style="font-size:9.51963996887207px;fill:#263238;font-family:Cabin-Regular, Cabin">c</text><text transform="translate(185.44 140.3)" style="font-size:9.51963996887207px;fill:#263238;font-family:Cabin-Regular, Cabin">a</text><text transform="translate(193.82 184.19)" style="font-size:9.51963996887207px;fill:#263238;font-family:Cabin-Regular, Cabin">a</text><line x1="283" y1="113.5" x2="323" y2="113.5" style="fill: none; stroke: rgb(38, 50, 56); stroke-miterlimit: 10; transform-origin: 303px 113.5px;" id="eld59f1xu4ei" class="animable"></line><line x1="283" y1="121.5" x2="305" y2="121.5" style="fill: none; stroke: rgb(38, 50, 56); stroke-miterlimit: 10; transform-origin: 294px 121.5px;" id="el4jzspvg2mw" class="animable"></line><line x1="283" y1="127.5" x2="314" y2="127.5" style="fill: none; stroke: rgb(38, 50, 56); stroke-miterlimit: 10; transform-origin: 298.5px 127.5px;" id="elb8opkxhw5mv" class="animable"></line><line x1="283" y1="134.5" x2="309" y2="134.5" style="fill: none; stroke: rgb(38, 50, 56); stroke-miterlimit: 10; transform-origin: 296px 134.5px;" id="elif7679rabp" class="animable"></line><line x1="283" y1="142.5" x2="322" y2="142.5" style="fill: none; stroke: rgb(38, 50, 56); stroke-miterlimit: 10; transform-origin: 302.5px 142.5px;" id="elu39qo0c09zd" class="animable"></line><line x1="283" y1="149.5" x2="321" y2="149.5" style="fill: none; stroke: rgb(38, 50, 56); stroke-miterlimit: 10; transform-origin: 302px 149.5px;" id="el6yztd7tthwt" class="animable"></line><line x1="283" y1="156.5" x2="309" y2="156.5" style="fill: none; stroke: rgb(38, 50, 56); stroke-miterlimit: 10; transform-origin: 296px 156.5px;" id="el626sw814yya" class="animable"></line><line x1="328" y1="217.5" x2="355" y2="217.5" style="fill: none; stroke: rgb(38, 50, 56); stroke-miterlimit: 10; transform-origin: 341.5px 217.5px;" id="elpxdx323ve3" class="animable"></line><line x1="328" y1="225.5" x2="343" y2="225.5" style="fill: none; stroke: rgb(38, 50, 56); stroke-miterlimit: 10; transform-origin: 335.5px 225.5px;" id="eli2orjllkcbl" class="animable"></line><line x1="328" y1="231.5" x2="349" y2="231.5" style="fill: none; stroke: rgb(38, 50, 56); stroke-miterlimit: 10; transform-origin: 338.5px 231.5px;" id="elorwr1bpg31i" class="animable"></line><line x1="328" y1="238.5" x2="346" y2="238.5" style="fill: none; stroke: rgb(38, 50, 56); stroke-miterlimit: 10; transform-origin: 337px 238.5px;" id="ely2c7xdo09k" class="animable"></line><line x1="191" y1="230.5" x2="218" y2="230.5" style="fill: none; stroke: rgb(38, 50, 56); stroke-miterlimit: 10; transform-origin: 204.5px 230.5px;" id="elavd5hcgknc5" class="animable"></line><line x1="191" y1="238.5" x2="206" y2="238.5" style="fill: none; stroke: rgb(38, 50, 56); stroke-miterlimit: 10; transform-origin: 198.5px 238.5px;" id="eldebxt9oktsv" class="animable"></line><line x1="191" y1="244.5" x2="212" y2="244.5" style="fill: none; stroke: rgb(38, 50, 56); stroke-miterlimit: 10; transform-origin: 201.5px 244.5px;" id="el0351syyv0u1u" class="animable"></line><line x1="191" y1="251.5" x2="209" y2="251.5" style="fill: none; stroke: rgb(38, 50, 56); stroke-miterlimit: 10; transform-origin: 200px 251.5px;" id="el6sd3a3hn8sq" class="animable"></line><line x1="336" y1="127.5" x2="362" y2="127.5" style="fill: none; stroke: rgb(38, 50, 56); stroke-miterlimit: 10; transform-origin: 349px 127.5px;" id="elauyedaf8lyq" class="animable"></line><line x1="336" y1="134.5" x2="362" y2="134.5" style="fill: none; stroke: rgb(38, 50, 56); stroke-miterlimit: 10; transform-origin: 349px 134.5px;" id="eljm6cfhdq0g" class="animable"></line><line x1="336" y1="141.5" x2="354" y2="141.5" style="fill: none; stroke: rgb(38, 50, 56); stroke-miterlimit: 10; transform-origin: 345px 141.5px;" id="el7jm4m866pac" class="animable"></line><line x1="259" y1="230.5" x2="285" y2="230.5" style="fill: none; stroke: rgb(38, 50, 56); stroke-miterlimit: 10; transform-origin: 272px 230.5px;" id="elm6bjyf2l6l" class="animable"></line><line x1="259" y1="237.5" x2="285" y2="237.5" style="fill: none; stroke: rgb(38, 50, 56); stroke-miterlimit: 10; transform-origin: 272px 237.5px;" id="el3cjvkbc6pn5" class="animable"></line><line x1="259" y1="244.5" x2="277" y2="244.5" style="fill: none; stroke: rgb(38, 50, 56); stroke-miterlimit: 10; transform-origin: 268px 244.5px;" id="ely3k21rg68u8" class="animable"></line><line x1="210" y1="184.5" x2="268" y2="184.5" style="fill: none; stroke: rgb(38, 50, 56); stroke-miterlimit: 10; transform-origin: 239px 184.5px;" id="elbrq1plg74pc" class="animable"></line><line x1="210" y1="197.5" x2="268" y2="197.5" style="fill: none; stroke: rgb(38, 50, 56); stroke-miterlimit: 10; transform-origin: 239px 197.5px;" id="el05bnb23dady6" class="animable"></line><line x1="210" y1="210.5" x2="268" y2="210.5" style="fill: none; stroke: rgb(38, 50, 56); stroke-miterlimit: 10; transform-origin: 239px 210.5px;" id="elk0jsf51oiz7" class="animable"></line><circle cx="306.47" cy="199.31" r="18.25" style="fill: none; stroke: rgb(38, 50, 56); stroke-miterlimit: 10; stroke-width: 0.793303px; transform-origin: 306.47px 199.31px;" id="elcg4hlsdwc3q" class="animable"></circle><polyline points="306.5 181 306.5 199.5 325 199.5" style="fill: none; stroke: rgb(38, 50, 56); stroke-miterlimit: 10; transform-origin: 315.75px 190.25px;" id="elzyy7apfu9lp" class="animable"></polyline><g id="elazwha7zi3ip"><rect x="169.87" y="97.94" width="209.26" height="168.02" style="fill: rgb(255, 255, 255); opacity: 0.6; isolation: isolate; transform-origin: 274.5px 181.95px;" class="animable"></rect></g></g><g id="freepik--Teacher--inject-27" class="animable" style="transform-origin: 336.26px 271.6px;"><path d="M300.26,188.62l-15.44-9a30.65,30.65,0,0,1-7.37-.34c-4-.69-4.86-.73-4.38-3.88s-.19-7.35,1-7.79,9.61,3.11,11.07,5.52l15.58,5.57Z" style="fill: rgb(185, 121, 100); transform-origin: 286.835px 178.096px;" id="elmq2aedvs9o" class="animable"></path><path d="M346,173.37v18s-3.84,1.27-8.61,2.6c-5.47,1.52-12.16,3.12-15.64,3-6.5-.32-28.5-11.74-28.5-11.74l4-7.62s24,8.18,27,7.59S346,173.37,346,173.37Z" style="fill: rgb(255, 215, 83); transform-origin: 319.625px 185.173px;" id="eltiiiqio65cd" class="animable"></path><g id="elsr839xr1l7"><path d="M346,182.14v9.24s-3.84,1.27-8.61,2.6C339.15,188.62,343.54,184.25,346,182.14Z" style="opacity: 0.2; isolation: isolate; transform-origin: 341.695px 188.06px;" class="animable"></path></g><path d="M350,237.44s-10.84,57.76-13.73,81.48c-3.78,30.94-19.23,76.2-19.23,76.2l6.18,1.6s21.78-38.46,26-73.07c17.3-35.37,18.69-78.93,18.69-78.93Z" style="fill: rgb(185, 121, 100); transform-origin: 342.475px 317.08px;" id="el30kqik8v7td" class="animable"></path><path d="M305.58,409.12a8.93,8.93,0,0,1,3.17-.8h0s3.8-2.24,7.57-10.92l4.23,0a3.5,3.5,0,0,1,3.25,2.33,2,2,0,0,1,.12.59,24.08,24.08,0,0,1-.32,3,86.41,86.41,0,0,1-2.48,10l-.72-.19,1.31-6.31c.43-2.15-1.82-.08-2.87,2.09s-2.65,4.34-7.32,3.27C306.07,410.89,303.87,410.1,305.58,409.12Z" style="fill: rgb(46, 53, 58); transform-origin: 314.466px 405.36px;" id="elm7x9xe6ne7j" class="animable"></path><path d="M361.29,236.52s1.35,58.75,3.43,82.56c2.7,31.05-3.06,78.53-3.06,78.53l6.38.28s13.35-42.13,10.35-76.87c9.61-38.19,2-81.09,2-81.09Z" style="fill: rgb(185, 121, 100); transform-origin: 372.27px 317.205px;" id="elp3kf0ijqbqe" class="animable"></path><path d="M351.74,411.06a9,9,0,0,1,3.07-1.15h0s3.54-2.63,6.34-11.67l4.21-.48a3.47,3.47,0,0,1,3.48,2,1.9,1.9,0,0,1,.18.57,24.19,24.19,0,0,1,0,3.07,85.44,85.44,0,0,1-1.38,10.17l-.74-.11.62-6.42c.2-2.18-1.82.13-2.63,2.39s-2.16,4.6-6.93,4.05C352.42,412.76,350.15,412.22,351.74,411.06Z" style="fill: rgb(46, 53, 58); transform-origin: 360.156px 405.657px;" id="elre806bqa5ms" class="animable"></path><path d="M382.83,136.58s3.17.17,5.84,5.38-.67,11-1.34,13.77-4,5.22,1.5,9.41,8.8,8.64,4.34,13.17.44,8-6,11.36S357,188,354,181.5s.62-11.44.81-13.38S351,164.19,350,157.84s4.12-7.71,4.81-10.61-2.52-6.56,0-12.73S382.49,127,382.83,136.58Z" style="fill: rgb(46, 53, 58); transform-origin: 372.561px 160.187px;" id="el2asr3rzhbzg" class="animable"></path><path d="M398.8,223.09c-3.79.49-8.17-6.91-11.34-13.81-2.71-5.85-4.6-11.35-4.6-11.35l2-5.64,5.22-14.72s3.65,5.09,9.14,24.47c.88,3.12,1.94,6.61,2.91,10.51a4.67,4.67,0,0,0,.87,2.75h0C403,218.23,403.35,222.5,398.8,223.09Z" style="fill: rgb(255, 215, 83); transform-origin: 392.933px 200.342px;" id="elvxxt4y8wya" class="animable"></path><g id="elcu1zqb6fzan"><path d="M387.39,209.28c-2.7-5.85-4.56-11.35-4.56-11.35l2-5.64C386.23,196.19,388.28,203.26,387.39,209.28Z" style="opacity: 0.2; isolation: isolate; transform-origin: 385.218px 200.785px;" class="animable"></path></g><g id="el5wtizznw8ym"><path d="M403,215.3h0c-2,1.32-4.09,1.3-5.26-1.11-2.37-4.87-.08-9.69,1.54-12.16.89,3.12,1.91,6.61,2.88,10.51A4.48,4.48,0,0,0,403,215.3Z" style="opacity: 0.2; isolation: isolate; transform-origin: 399.86px 209.103px;" class="animable"></path></g><path d="M343.34,221.17s20,7.16,39.06,5.83c0,0-1.73-23.6-11.73-27.8S343.34,201,343.34,221.17Z" style="fill: rgb(255, 215, 83); transform-origin: 362.87px 212.55px;" id="elrprb6y61yc" class="animable"></path><g id="elglpcef2029p"><path d="M343.34,221.17s20,7.16,39.06,5.83c0,0-1.73-23.6-11.73-27.8S343.34,201,343.34,221.17Z" style="opacity: 0.2; isolation: isolate; transform-origin: 362.87px 212.55px;" class="animable"></path></g><path d="M346.17,222.85l33,2.85a117.34,117.34,0,0,1,3.51-24.24c.79-3.16,1.78-6.69,3.05-10.77.68-2.18,1.43-4.52,2.27-7,.63-1.91,1.31-3.94,2.06-6.08a98,98,0,0,0-13.7-3.31,105.2,105.2,0,0,0-14.82-1.56c-6.42,0-13.8.67-13.8.67s-1.05.25-1.71,7.06C345.44,186.82,344.85,199.6,346.17,222.85Z" style="fill: rgb(255, 215, 83); transform-origin: 367.717px 199.22px;" id="elcgvg45gsfu8" class="animable"></path><path d="M346.33,227.8l33,2.72c.52-8.2.91-19.28,3.38-29.06.79-3.16,1.78-6.69,3.05-10.77.68-2.18,1.43-4.52,2.27-7,.63-1.91,1.31-3.94,2.06-6.08a98,98,0,0,0-13.7-3.31,105.2,105.2,0,0,0-14.82-1.56c-6.42,0-13.8.67-13.8.67s-1.05.25-1.71,7.06C345.44,186.82,345,204.55,346.33,227.8Z" style="fill: rgb(46, 53, 58); transform-origin: 367.776px 201.63px;" id="el4vp617s6ygr" class="animable"></path><path d="M364.27,180c8.14-1,10.58-4.52,10.58-4.52-5.16-4.87-.87-13.31-.87-13.31L364.19,164a27.67,27.67,0,0,1,.38,4.13c.08,5.94-2.61,6-2.61,6C360.24,177.34,364.27,180,364.27,180Z" style="fill: rgb(185, 121, 100); transform-origin: 368.191px 171.085px;" id="el2eze89i9cve" class="animable"></path><g id="elfdkygl5wz4o"><path d="M364.19,164a27.67,27.67,0,0,1,.38,4.13c6.61,0,9.41-6,9.41-6Z" style="opacity: 0.2; isolation: isolate; transform-origin: 369.085px 165.13px;" class="animable"></path></g><path d="M369.6,136.61c-8.51-.46-11.5,3.95-12.6,12.68-1.38,10.92.62,18.84,11.39,17.08C383,164,383.74,137.39,369.6,136.61Z" style="fill: rgb(185, 121, 100); transform-origin: 368.202px 151.596px;" id="el61a5h3ipq58" class="animable"></path><path d="M362.52,149.12a17.81,17.81,0,0,1-2.67,3.39,2.36,2.36,0,0,0,2.2,1.09Z" style="fill: rgb(162, 78, 63); transform-origin: 361.185px 151.364px;" id="eli0ys61xo4i" class="animable"></path><path d="M367.77,148.71c0,.7.28,1.29.75,1.33s.88-.5.94-1.2-.28-1.29-.75-1.33S367.83,148,367.77,148.71Z" style="fill: rgb(46, 53, 58); transform-origin: 368.618px 148.775px;" id="elje1nkx5litt" class="animable"></path><path d="M368.91,147.56l-1.48-.72S368.09,148.18,368.91,147.56Z" style="fill: rgb(46, 53, 58); transform-origin: 368.17px 147.282px;" id="elh5g3mlltrjm" class="animable"></path><path d="M359.1,147.88c-.05.7.28,1.3.75,1.33s.88-.5.94-1.2-.28-1.29-.74-1.33S359.16,147.18,359.1,147.88Z" style="fill: rgb(46, 53, 58); transform-origin: 359.946px 147.945px;" id="el7ml0x71udpt" class="animable"></path><path d="M360.24,146.73l-1.48-.71S359.42,147.36,360.24,146.73Z" style="fill: rgb(46, 53, 58); transform-origin: 359.5px 146.459px;" id="else3aq3sz2y" class="animable"></path><path d="M368.18,142.83a4.43,4.43,0,0,1,3.62,1.49" style="fill: none; stroke: rgb(46, 53, 58); stroke-linecap: round; stroke-linejoin: round; stroke-width: 0.72468px; transform-origin: 369.99px 143.57px;" id="eloshynilp14p" class="animable"></path><path d="M362,142.14a4,4,0,0,0-3.43.51" style="fill: none; stroke: rgb(46, 53, 58); stroke-linecap: round; stroke-linejoin: round; stroke-width: 0.72468px; transform-origin: 360.285px 142.305px;" id="el4upy2cv9csu" class="animable"></path><path d="M363.1,157a21.15,21.15,0,0,1,.83,3,5.24,5.24,0,0,0,.56,0c2.49-.11,3.6-1,4.09-1.92a3.16,3.16,0,0,0,.32-1.49,2.81,2.81,0,0,0-.11-.86A11.71,11.71,0,0,1,364,157C363.43,157,363.1,157,363.1,157Z" style="fill: rgb(46, 53, 58); transform-origin: 366.001px 157.869px;" id="elmxhv38to0q" class="animable"></path><path d="M364,157l.27.88c2.35-.11,4-.51,4.68-1.25a2.81,2.81,0,0,0-.11-.86A11.71,11.71,0,0,1,364,157Z" style="fill: rgb(255, 255, 255); transform-origin: 366.476px 156.825px;" id="elatu6eb4n5ft" class="animable"></path><path d="M364.49,160c2.49-.11,3.6-1,4.09-1.92a8,8,0,0,0-2.74.67A3,3,0,0,0,364.49,160Z" style="fill: rgb(222, 87, 83); transform-origin: 366.535px 159.04px;" id="eltjtl2cyt5iq" class="animable"></path><path d="M378.12,151.47s-3.6-7.21-2.7-12.58c0,0-16.49-7.81-18.26,9.26,0,0-.82-15.29,13.83-14.83s13.42,21.87,5.51,27.83C376.5,161.15,380.34,156,378.12,151.47Z" style="fill: rgb(46, 53, 58); transform-origin: 369.717px 147.23px;" id="elh7re3n6mmzi" class="animable"></path><path d="M376.63,153.19a3.73,3.73,0,0,1,4.21-3.19c2.62.43,3.58,5.91-3,6.86C376.83,157,376.35,156,376.63,153.19Z" style="fill: rgb(185, 121, 100); transform-origin: 379.692px 153.419px;" id="eli1fdx1emb2s" class="animable"></path><path d="M382.4,176.38S372.84,184.13,364,184s-12-10.12-12-10.12S365.73,169.79,382.4,176.38Z" style="fill: rgb(185, 121, 100); transform-origin: 367.2px 178.314px;" id="elge5nylu3nbp" class="animable"></path><path d="M381.58,174.92S365.9,203,382.4,227c0,0,2.24-29.61,7.67-49.43Z" style="fill: rgb(255, 215, 83); transform-origin: 382.459px 200.96px;" id="eloy23rskufqo" class="animable"></path><path d="M352.81,172.7s-.14,19.87-3,27.25-6.49,21.22-6.49,21.22-2.76-33.1,2.66-47.8Z" style="fill: rgb(255, 215, 83); transform-origin: 347.714px 196.935px;" id="elqo2u9o462z" class="animable"></path><path d="M375.42,138.89s-6.34-2.19-11.92,0-4.06,8-6.89,9.06" style="fill: none; stroke: rgb(46, 53, 58); stroke-linecap: round; stroke-linejoin: round; stroke-width: 0.5px; transform-origin: 366.015px 142.933px;" id="elb9dbm31tzc" class="animable"></path><path d="M425.75,169.12l-2.62-1.5-9.63,2.63-13-3.37-3,9.87s-.62,11,0,11.13,14.88.87,14.88.87l7.25-4.62Z" style="fill: rgb(224, 224, 224); transform-origin: 411.487px 177.815px;" id="elipoa0dx642c" class="animable"></path><polygon points="397 167.62 391.25 190.39 409 192.38 421.25 189 427.5 167.62 413.5 171.25 397 167.62" style="fill: rgb(255, 215, 83); transform-origin: 409.375px 180px;" id="el6gekpgll6t9" class="animable"></polygon><g id="elyhtvhok6oy"><polygon points="413.5 171.25 409 192.38 391.25 190.39 397 167.62 413.5 171.25" style="fill: rgb(255, 255, 255); opacity: 0.4; isolation: isolate; transform-origin: 402.375px 180px;" class="animable"></polygon></g><g id="el7vvw50zrymd"><polygon points="413.5 171.25 409 192.38 421.25 189 427.5 167.62 413.5 171.25" style="fill: rgb(255, 255, 255); opacity: 0.2; transform-origin: 418.25px 180px;" class="animable"></polygon></g><path d="M397.92,213l8.25-15.84a30.44,30.44,0,0,1,0-7.38c.5-4,.5-4.89,3.66-4.56s7.34-.53,7.84.64-2.67,9.74-5,11.31L407.82,213Z" style="fill: rgb(185, 121, 100); transform-origin: 407.821px 199.079px;" id="elxcukqo7htc" class="animable"></path><path d="M395.25,221.7c5.25,4.47,11.25.63,14.58-12.2l-10.33-1.33Z" style="fill: rgb(255, 215, 83); transform-origin: 402.54px 215.83px;" id="el8jaik5uoiml" class="animable"></path><polygon points="400.03 205.35 397.92 209.07 411 210.83 411 207 400.03 205.35" style="fill: rgb(46, 53, 58); transform-origin: 404.46px 208.09px;" id="elyxnysqtfft" class="animable"></polygon><polygon points="292.72 186.15 296.34 188.43 298.71 175.45 294.88 175.27 292.72 186.15" style="fill: rgb(46, 53, 58); transform-origin: 295.715px 181.85px;" id="elmo3sejdh61" class="animable"></polygon><path d="M346.33,227.8,325.53,350s50.34,6,67.4,2.5c0,0,4.19-87.48-13.62-122Z" style="fill: rgb(255, 215, 83); transform-origin: 359.444px 290.698px;" id="eleo8ddclbpj" class="animable"></path><g id="ely97b95borj"><path d="M346.33,227.8,325.53,350s50.34,6,67.4,2.5c0,0,4.19-87.48-13.62-122Z" style="fill: rgb(255, 255, 255); opacity: 0.4; isolation: isolate; transform-origin: 359.444px 290.698px;" class="animable"></path></g><path d="M278.79,174.08l-5.18-5.35c-3.09-3.23-7.29-7.46-11.46-11.71l-6.17-6.2-5.39-5.41-3.81-3.82c-.46-.46-.83-.82-1.07-1.07a.86.86,0,0,0-.69-.06l1.41-1.42a.86.86,0,0,0,.06.69l1.08,1.07,3.84,3.79,5.42,5.37,6.24,6.14c4.27,4.15,8.52,8.33,11.76,11.41l5.38,5.15Z" style="fill: rgb(46, 53, 58); transform-origin: 262.615px 156.56px;" id="el0pguy9kdh3t" class="animable"></path><path d="M317.08,395.12s-5.28,11.06-8.33,13.2c0,0,4.08,2.43,8.33-3,5.5-7,6.84-5,6.84-5a19.61,19.61,0,0,0-.66-3.57C322.43,394.46,317.08,395.12,317.08,395.12Z" style="fill: rgb(185, 121, 100); transform-origin: 316.335px 401.947px;" id="elhzo0mclkxt8" class="animable"></path><path d="M362.31,395s-1.5,4.1-3.5,8.6a19.43,19.43,0,0,1-4,6.28s3.48,1.13,5.35-1.05,5.08-10,8.68-9.14a8.21,8.21,0,0,0-.8-1.83C367.5,397,362.31,395,362.31,395Z" style="fill: rgb(185, 121, 100); transform-origin: 361.825px 402.586px;" id="el0q6rdniprd6" class="animable"></path></g><g id="freepik--Table--inject-27" class="animable" style="transform-origin: 191.766px 348.295px;"><polygon points="194.52 414 195.34 289.75 187.21 289.75 188.02 414 194.52 414" style="fill: rgb(255, 215, 83); transform-origin: 191.275px 351.875px;" id="elyigv2aft0t" class="animable"></polygon><g id="elwvfsop3qr5n"><polygon points="188.02 414 194.53 414 195.18 314.73 195.34 290 187.21 290 187.37 314.73 188.02 414" style="fill: rgb(255, 255, 255); opacity: 0.5; isolation: isolate; transform-origin: 191.275px 352px;" class="animable"></polygon></g><g id="elinf1y6x468"><polygon points="195.34 290 195.18 315 187.37 315 187.21 290 195.34 290" style="opacity: 0.2; isolation: isolate; transform-origin: 191.275px 302.5px;" class="animable"></polygon></g><polygon points="257.67 414 250.37 289.75 242.24 289.75 251.17 414 257.67 414" style="fill: rgb(255, 215, 83); transform-origin: 249.955px 351.875px;" id="el6igws7isf7y" class="animable"></polygon><g id="elihy7vd28chq"><polygon points="251.16 414 257.67 414 250.81 297.37 250.37 290 242.24 290 242.78 297.37 251.16 414" style="fill: rgb(255, 255, 255); opacity: 0.5; isolation: isolate; transform-origin: 249.955px 352px;" class="animable"></polygon></g><g id="elvfj42vylnj"><polygon points="250.81 297 242.78 297 242.24 290 250.37 290 250.81 297" style="opacity: 0.2; isolation: isolate; transform-origin: 246.525px 293.5px;" class="animable"></polygon></g><polygon points="131.38 414 140.3 289.75 132.17 289.75 124.87 414 131.38 414" style="fill: rgb(255, 215, 83); transform-origin: 132.585px 351.875px;" id="eluow5yizeztg" class="animable"></polygon><g id="ell6hrh1jqtwi"><polygon points="131.38 414 139.76 297.37 140.3 290 132.17 290 131.73 297.37 124.87 414 131.38 414" style="fill: rgb(255, 255, 255); opacity: 0.3; isolation: isolate; transform-origin: 132.585px 352px;" class="animable"></polygon></g><g id="eljpmnu3vy578"><polygon points="132.17 290 140.3 290 139.76 297 131.73 297 132.17 290" style="opacity: 0.2; isolation: isolate; transform-origin: 136.015px 293.5px;" class="animable"></polygon></g><path d="M125.73,285.92H256.81a0,0,0,0,1,0,0v5.51a2.16,2.16,0,0,1-2.16,2.16H127.89a2.16,2.16,0,0,1-2.16-2.16v-5.51A0,0,0,0,1,125.73,285.92Z" style="fill: rgb(255, 215, 83); transform-origin: 191.27px 289.755px;" id="el0x3xm9zrpuzr" class="animable"></path><g id="elvh3scx1knb"><path d="M125.73,285.92H256.81a0,0,0,0,1,0,0v5.51a2.16,2.16,0,0,1-2.16,2.16H127.89a2.16,2.16,0,0,1-2.16-2.16v-5.51A0,0,0,0,1,125.73,285.92Z" style="fill: rgb(255, 255, 255); opacity: 0.4; isolation: isolate; transform-origin: 191.27px 289.755px;" class="animable"></path></g><g id="el5dbvsn4el1k"><rect x="125.73" y="285.92" width="131.08" height="3.84" style="opacity: 0.2; isolation: isolate; transform-origin: 191.27px 287.84px;" class="animable"></rect></g><path d="M260.61,286.92H121.93a2.17,2.17,0,0,1-2.16-2.17h0a2.16,2.16,0,0,1,2.16-2.16H260.61a2.16,2.16,0,0,1,2.16,2.16h0A2.17,2.17,0,0,1,260.61,286.92Z" style="fill: rgb(255, 215, 83); transform-origin: 191.27px 284.755px;" id="eltlnnxofdrra" class="animable"></path><g id="eldi14k88r6g"><path d="M260.61,286.92H121.93a2.17,2.17,0,0,1-2.16-2.17h0a2.16,2.16,0,0,1,2.16-2.16H260.61a2.16,2.16,0,0,1,2.16,2.16h0A2.17,2.17,0,0,1,260.61,286.92Z" style="fill: rgb(255, 255, 255); opacity: 0.4; isolation: isolate; transform-origin: 191.27px 284.755px;" class="animable"></path></g><path d="M183.75,285.92v4.25a3.42,3.42,0,0,0,3.42,3.42h68.47a2.17,2.17,0,0,0,2.17-2.16v-5.51Z" style="fill: rgb(255, 215, 83); transform-origin: 220.78px 289.755px;" id="elkcgpafxlju" class="animable"></path><g id="elbl1ucc7ys0h"><path d="M183.75,285.92v4.25a3.42,3.42,0,0,0,3.42,3.42h68.47a2.17,2.17,0,0,0,2.17-2.16v-5.51Z" style="fill: rgb(255, 255, 255); opacity: 0.6; isolation: isolate; transform-origin: 220.78px 289.755px;" class="animable"></path></g><g id="elupbyiizy3i"><rect x="183.75" y="285.92" width="74.06" height="3.84" style="opacity: 0.2; isolation: isolate; transform-origin: 220.78px 287.84px;" class="animable"></rect></g><path d="M261.48,282.59H181.91a2.17,2.17,0,0,0-2.17,2.16h0a2.17,2.17,0,0,0,2.17,2.17H261.6a2.16,2.16,0,0,0,2.15-2.39A2.25,2.25,0,0,0,261.48,282.59Z" style="fill: rgb(255, 215, 83); transform-origin: 221.751px 284.755px;" id="elcvu9kokazbm" class="animable"></path><g id="eli7ca86q58k"><path d="M261.48,282.59H181.91a2.17,2.17,0,0,0-2.17,2.16h0a2.17,2.17,0,0,0,2.17,2.17H261.6a2.16,2.16,0,0,0,2.15-2.39A2.25,2.25,0,0,0,261.48,282.59Z" style="fill: rgb(255, 255, 255); opacity: 0.6; isolation: isolate; transform-origin: 221.751px 284.755px;" class="animable"></path></g></g><g id="freepik--Student--inject-27" class="animable" style="transform-origin: 150.939px 298.043px;"><g id="freepik--group--inject-27" class="animable" style="transform-origin: 150.939px 298.043px;"><line x1="199.56" y1="264.65" x2="190.81" y2="280.81" style="fill: none; stroke: rgb(46, 53, 58); stroke-miterlimit: 10; stroke-width: 2px; transform-origin: 195.185px 272.73px;" id="elmrpric37kd" class="animable"></line><path d="M117.13,247s7.9-14.07,9.2-16.82,4.8-22.13,4.8-22.13a12.63,12.63,0,0,1-.63-2.87c0-1,.63-5.63.63-5.63s0-.37,2.5-1.12,5.25-1.75,5.5-.63-.38,8.88-1.13,9.63a16.92,16.92,0,0,0-1.6,2s-2.11,20.66-3.07,23.7-8.83,19.31-8.83,19.31Z" style="fill: rgb(228, 137, 123); transform-origin: 128.158px 224.869px;" id="el4p34k6ju4bi" class="animable"></path><path d="M154,264.44S173.7,273,176.55,274s11.41,1.2,11.41,1.2a12.93,12.93,0,0,1,2.81-.87c1-.09,5.65.14,5.65.14s.38,0,1.34,2.4,2.19,5.08,1.09,5.42-8.87.39-9.68-.29l-.81-.69s-11,2.62-14.1,1.93-25-7-25-7Z" style="fill: rgb(228, 137, 123); transform-origin: 174.272px 273.898px;" id="el3e4f89mmpe8" class="animable"></path><path d="M127.67,249.43a24.15,24.15,0,0,1-4.33,9.69c-4.22,6-10.17,9.9-11.78,3.73-2.45-9.32,7.94-21,7.94-21Z" style="fill: rgb(255, 215, 83); transform-origin: 119.428px 253.91px;" id="elxs0y22e2z2e" class="animable"></path><g id="elyluybymsy2"><path d="M127.67,249.43a24.15,24.15,0,0,1-4.33,9.69A4.54,4.54,0,0,1,122,255.5C122.58,251.33,127.67,249.43,127.67,249.43Z" style="opacity: 0.2; isolation: isolate; transform-origin: 124.827px 254.275px;" class="animable"></path></g><path d="M148.6,242.44a11,11,0,0,1-3.3,5.31,13.17,13.17,0,0,1-8.55,3.36,12.2,12.2,0,0,1-8.48-3.15c-4.59-4.14-4.45-8.9-5-17s8.25-14.26,17.16-11S150.6,235.17,148.6,242.44Z" style="fill: rgb(228, 137, 123); transform-origin: 136.334px 235.092px;" id="elj6ryn0cuusk" class="animable"></path><path d="M137.65,214.78s6.23-2.28,10.6,1.35,4.13,12.37,0,16.5c0,0,1.13-1.5-2.12-5.13S137.65,214.78,137.65,214.78Z" style="fill: rgb(46, 53, 58); transform-origin: 144.544px 223.352px;" id="el0f1b2qy3l0kb" class="animable"></path><g id="elscq8oih3l9e"><path d="M145.3,247.75a13.17,13.17,0,0,1-8.55,3.36,7.93,7.93,0,0,1,2.75-3.36C141.38,248.71,143.71,248.26,145.3,247.75Z" style="opacity: 0.2; isolation: isolate; transform-origin: 141.025px 249.43px;" class="animable"></path></g><polygon points="146.9 380.25 145.84 386.88 144.87 393 136 393 136.77 385.17 137.5 377.67 146.9 380.25" style="fill: rgb(228, 137, 123); transform-origin: 141.45px 385.335px;" id="eliza7u3gztet" class="animable"></polygon><path d="M144.37,389.53l-9-.57a.57.57,0,0,0-.63.51h0l-.89,7.1a1.42,1.42,0,0,0,1.32,1.5c3.14.15,4.65.06,8.61.28,2.43.14,7.22.66,10.58.33s2.94-3.63,1.49-3.79c-3.43-.39-8-2.91-10.13-4.83A2.27,2.27,0,0,0,144.37,389.53Z" style="fill: rgb(46, 53, 58); transform-origin: 145.39px 393.872px;" id="ell2mpa6aabr" class="animable"></path><path d="M147.13,391.07a10.17,10.17,0,0,1-2.13-.42.18.18,0,0,1-.13-.15.21.21,0,0,1,.08-.19c.27-.16,2.64-1.57,3.6-1.13a.73.73,0,0,1,.4.56,1,1,0,0,1-.29,1A2.17,2.17,0,0,1,147.13,391.07Zm1.26-1.51c-.51-.24-1.88.35-2.85.88,1.41.37,2.47.39,2.87.05a.71.71,0,0,0,.18-.66.35.35,0,0,0-.2-.27Z" style="fill: rgb(255, 215, 83); transform-origin: 146.927px 390.096px;" id="el1g24ps9usmw" class="animable"></path><path d="M145,390.65a.11.11,0,0,1-.08,0,.24.24,0,0,1-.09-.15c0-.07,0-2.42.82-3.15a1,1,0,0,1,.81-.21.72.72,0,0,1,.65.6c.12.89-1.18,2.49-2,2.91A.12.12,0,0,1,145,390.65Zm1.3-3.12a.54.54,0,0,0-.41.15,4.18,4.18,0,0,0-.68,2.5,3.93,3.93,0,0,0,1.52-2.34c0-.11-.07-.25-.33-.3Z" style="fill: rgb(255, 215, 83); transform-origin: 145.974px 388.894px;" id="el4495eqso1r2" class="animable"></path><g id="elt4nk7t3t38"><polygon points="146.9 380.25 145.84 386.88 136.77 385.17 137.5 377.67 146.9 380.25" style="opacity: 0.2; isolation: isolate; transform-origin: 141.835px 382.275px;" class="animable"></polygon></g><path d="M157.67,329.88c-4.11-5.42-14.74-8.17-23.29-9.54l-2.88,21.45c5.27,1.09,7.46,4,7.75,5.21,1.39,5.74-5.25,35.67-5.25,35.67L147.81,386S165,339.55,157.67,329.88Z" style="fill: rgb(46, 53, 58); transform-origin: 145.495px 353.17px;" id="el8zu3jnml3tc" class="animable"></path><g id="elpqefsuv43aa"><path d="M157.67,329.88c-4.11-5.42-14.74-8.17-23.29-9.54l-2.88,21.45c5.27,1.09,7.46,4,7.75,5.21,1.39,5.74-5.25,35.67-5.25,35.67L147.81,386S165,339.55,157.67,329.88Z" style="opacity: 0.2; isolation: isolate; transform-origin: 145.495px 353.17px;" class="animable"></path></g><polygon points="171.9 380.25 170.84 386.88 169.87 393 161 393 161.77 385.17 162.5 377.67 171.9 380.25" style="fill: rgb(228, 137, 123); transform-origin: 166.45px 385.335px;" id="elapui5ox3869" class="animable"></polygon><path d="M169.37,389.53l-9-.57a.57.57,0,0,0-.63.51h0l-.89,7.1a1.42,1.42,0,0,0,1.32,1.5c3.14.15,4.65.06,8.61.28,2.43.14,7.22.66,10.58.33s2.94-3.63,1.49-3.79c-3.43-.39-8-2.91-10.13-4.83A2.27,2.27,0,0,0,169.37,389.53Z" style="fill: rgb(46, 53, 58); transform-origin: 170.39px 393.872px;" id="elccxfi04b2y7" class="animable"></path><path d="M172.13,391.07a10.17,10.17,0,0,1-2.13-.42.18.18,0,0,1-.13-.15.21.21,0,0,1,.08-.19c.27-.16,2.64-1.57,3.6-1.13a.73.73,0,0,1,.4.56,1,1,0,0,1-.29,1A2.17,2.17,0,0,1,172.13,391.07Zm1.26-1.51c-.51-.24-1.88.35-2.85.88,1.41.37,2.47.39,2.87.05a.71.71,0,0,0,.18-.66.35.35,0,0,0-.2-.27Z" style="fill: rgb(255, 215, 83); transform-origin: 171.927px 390.096px;" id="elf0wv5mbda3" class="animable"></path><path d="M170,390.65a.11.11,0,0,1-.08,0,.24.24,0,0,1-.09-.15c0-.07,0-2.42.82-3.15a1,1,0,0,1,.81-.21.72.72,0,0,1,.65.6c.12.89-1.18,2.49-2,2.91A.12.12,0,0,1,170,390.65Zm1.3-3.12a.54.54,0,0,0-.41.15,4.18,4.18,0,0,0-.68,2.5,3.93,3.93,0,0,0,1.52-2.34c0-.11-.07-.25-.33-.3Z" style="fill: rgb(255, 215, 83); transform-origin: 170.974px 388.894px;" id="elhpj2cg3ezb9" class="animable"></path><g id="elnrt7wv0nvt"><polygon points="171.9 380.25 170.84 386.88 161.77 385.17 162.5 377.67 171.9 380.25" style="opacity: 0.2; isolation: isolate; transform-origin: 166.835px 382.275px;" class="animable"></polygon></g><path d="M128.46,246.63c0,4.76-.56,9.28-3.49,11.4a55.93,55.93,0,0,0,13.44,8.5c5.2-3.69,2.8-6.74,2.8-6.74-4.55-2.49-3.13-8.32-1.71-12,0,0-1.12-1.81-7.5-1.83C129.17,245.91,128.46,246.63,128.46,246.63Z" style="fill: rgb(228, 137, 123); transform-origin: 133.366px 256.244px;" id="elu7o1od8swqh" class="animable"></path><path d="M103.91,315.19s-9.3,26.3,17.06,26.3,28.49-10.28,26.26-22.38Z" style="fill: rgb(46, 53, 58); transform-origin: 125.106px 328.34px;" id="el8lqlltz9y0u" class="animable"></path><path d="M147.23,319s28.1,1.18,35.44,10.85S172.81,386,172.81,386L159,382.67s7.59-31.69,4.73-35.79-18.4-4.35-39.4-5.45S147.23,319,147.23,319Z" style="fill: rgb(46, 53, 58); transform-origin: 151.567px 352.5px;" id="elqelbyy5yi7l" class="animable"></path><path d="M122.38,257.25,125,251.1s14.95.54,19.49,7.35S122.38,257.25,122.38,257.25Z" style="fill: rgb(255, 215, 83); transform-origin: 133.695px 256.147px;" id="elloe2caw9lts" class="animable"></path><path d="M152.87,266.61c.45,7.69,0,23.49-5.64,52.5l-43.32-3.92c.28-6.13,9.45-27.14,7.5-54.8a7.47,7.47,0,0,1,6.92-8l.25,0c2.13-.08,15.12,3.76,21.22,4.68,2.35.43,4.63,1,6.57,1.55A8.86,8.86,0,0,1,152.87,266.61Z" style="fill: rgb(255, 215, 83); transform-origin: 128.455px 285.749px;" id="el4hcpwiqtl2q" class="animable"></path><g id="elhrfjgzuvevf"><path d="M152.87,266.61c.45,7.69,0,23.49-5.64,52.5l-43.32-3.92c.28-6.13,9.45-27.14,7.5-54.8a7.47,7.47,0,0,1,6.92-8l.25,0c2.13-.08,15.12,3.76,21.22,4.68,2.35.43,4.63,1,6.57,1.55A8.86,8.86,0,0,1,152.87,266.61Z" style="opacity: 0.2; isolation: isolate; transform-origin: 128.455px 285.749px;" class="animable"></path></g><path d="M146.37,258.62c-4.76-1-5.29,12.88-1.83,16.88s21.91,7,21.91,7l3.42-12.5S154.7,260.42,146.37,258.62Z" style="fill: rgb(255, 215, 83); transform-origin: 156.089px 270.534px;" id="eli6pxsrq84lr" class="animable"></path><path d="M126.59,246.14s-6.09-1.67-8.92-14.74,9.62-18.9,23.73-16.07,7.21,23-5.07,30.81A14.72,14.72,0,0,1,126.59,246.14Z" style="fill: rgb(46, 53, 58); transform-origin: 133.257px 230.799px;" id="elmxt9dw4goke" class="animable"></path><path d="M142,235.53a6.5,6.5,0,0,0,2.64,4c1.73,1.14,3.07-.6,3-2.84-.08-2-1.07-5.05-3-5.27S141.52,233.41,142,235.53Z" style="fill: rgb(228, 137, 123); transform-origin: 144.768px 235.647px;" id="elr94bb3rnp0n" class="animable"></path></g></g><g id="freepik--Chair--inject-27" class="animable animator-active" style="transform-origin: 122.5px 342.265px;"><polygon points="125.21 414 131.46 414 132.68 361.57 133.04 346 123.64 346 124 361.57 125.21 414" style="fill: rgb(255, 215, 83); transform-origin: 128.34px 380px;" id="el9ggkab7a0ha" class="animable"></polygon><g id="elwqnf5ejqyc"><polygon points="125.21 414 131.46 414 132.68 361.57 133.04 346 123.64 346 124 361.57 125.21 414" style="fill: rgb(255, 255, 255); opacity: 0.4; isolation: isolate; transform-origin: 128.34px 380px;" class="animable"></polygon></g><g id="eloieon89pzco"><polygon points="133.04 346 132.68 362 124 362 123.64 346 133.04 346" style="opacity: 0.2; isolation: isolate; transform-origin: 128.34px 354px;" class="animable"></polygon></g><polygon points="161.37 414 157.42 347.1 149.25 347.1 154.78 414 161.37 414" style="fill: rgb(255, 215, 83); transform-origin: 155.31px 380.55px;" id="el832ecyx4iz9" class="animable"></polygon><g id="elb10ip3f3ef5"><polygon points="154.77 414 161.37 414 157.87 354.7 157.42 347 149.25 347 149.88 354.7 154.77 414" style="fill: rgb(255, 255, 255); opacity: 0.5; isolation: isolate; transform-origin: 155.31px 380.5px;" class="animable"></polygon></g><g id="eluqfv1ui63xd"><polygon points="149.25 347 149.88 355 157.87 355 157.42 347 149.25 347" style="opacity: 0.2; isolation: isolate; transform-origin: 153.56px 351px;" class="animable"></polygon></g><polygon points="101.89 414 107.42 347.1 99.25 347.1 95.31 414 101.89 414" style="fill: rgb(255, 215, 83); transform-origin: 101.365px 380.55px;" id="elqh80dtwlmwa" class="animable"></polygon><g id="elgefp2kltsq6"><polygon points="101.91 414 106.79 354.7 107.42 347 99.25 347 98.8 354.7 95.31 414 101.91 414" style="fill: rgb(255, 255, 255); opacity: 0.5; isolation: isolate; transform-origin: 101.365px 380.5px;" class="animable"></polygon></g><g id="elxbf3nj5hiil"><polygon points="107.42 347 106.79 355 98.8 355 99.25 347 107.42 347" style="opacity: 0.2; isolation: isolate; transform-origin: 103.11px 351px;" class="animable"></polygon></g><path d="M99.88,338.33H156.8a5,5,0,0,1,5,5V350a0,0,0,0,1,0,0H94.88a0,0,0,0,1,0,0v-6.69A5,5,0,0,1,99.88,338.33Z" style="fill: rgb(255, 215, 83); transform-origin: 128.34px 344.165px;" id="ellc9oeumn0vi" class="animable"></path><g id="ely9y1st9rlno"><rect x="121.05" y="274.01" width="5" height="72.32" style="fill: rgb(255, 215, 83); transform-origin: 123.55px 310.17px; transform: rotate(-7.8deg);" class="animable"></rect></g><g id="elv064ojasia"><rect x="90.05" y="274.01" width="5" height="72.32" style="fill: rgb(255, 215, 83); transform-origin: 92.55px 310.17px; transform: rotate(-7.8deg);" class="animable"></rect></g><g id="el100mogws2c9q"><g style="opacity: 0.4; isolation: isolate; transform-origin: 123.55px 310.17px;" class="animable"><g id="eldqo90vog9yg"><rect x="121.05" y="274.01" width="5" height="72.32" style="fill: rgb(255, 255, 255); transform-origin: 123.55px 310.17px; transform: rotate(-7.8deg);" class="animable"></rect></g></g></g><g id="eltwesrcs4rjh"><g style="opacity: 0.4; isolation: isolate; transform-origin: 92.55px 310.17px;" class="animable"><g id="el0d9a4f7k24mh"><rect x="90.05" y="274.01" width="5" height="72.32" style="fill: rgb(255, 255, 255); transform-origin: 92.55px 310.17px; transform: rotate(-7.8deg);" class="animable"></rect></g></g></g><rect x="91.67" y="344.18" width="73.33" height="5.84" rx="2.01" style="fill: rgb(255, 215, 83); transform-origin: 128.335px 347.1px;" id="elwa9uyvw3hw" class="animable"></rect><g id="elhcd6z5evif"><rect x="91.67" y="344.18" width="73.33" height="5.84" rx="2.01" style="fill: rgb(255, 255, 255); opacity: 0.6; isolation: isolate; transform-origin: 128.335px 347.1px;" class="animable"></rect></g><polygon points="128.05 298.29 83.56 298.29 80 270.53 124.49 270.53 128.05 298.29" style="fill: rgb(255, 215, 83); transform-origin: 104.025px 284.41px;" id="elp7x461l2des" class="animable"></polygon><g id="elwqtiqnhx03c"><polygon points="128.05 298.29 83.56 298.29 80 270.53 124.49 270.53 128.05 298.29" style="fill: rgb(255, 255, 255); opacity: 0.6; isolation: isolate; transform-origin: 104.025px 284.41px;" class="animable"></polygon></g></g><defs>     <filter id="active" height="200%">         <feMorphology in="SourceAlpha" result="DILATED" operator="dilate" radius="2"></feMorphology>                <feFlood flood-color="#32DFEC" flood-opacity="1" result="PINK"></feFlood>        <feComposite in="PINK" in2="DILATED" operator="in" result="OUTLINE"></feComposite>        <feMerge>            <feMergeNode in="OUTLINE"></feMergeNode>            <feMergeNode in="SourceGraphic"></feMergeNode>        </feMerge>    </filter>    <filter id="hover" height="200%">        <feMorphology in="SourceAlpha" result="DILATED" operator="dilate" radius="2"></feMorphology>                <feFlood flood-color="#ff0000" flood-opacity="0.5" result="PINK"></feFlood>        <feComposite in="PINK" in2="DILATED" operator="in" result="OUTLINE"></feComposite>        <feMerge>            <feMergeNode in="OUTLINE"></feMergeNode>            <feMergeNode in="SourceGraphic"></feMergeNode>        </feMerge>            <feColorMatrix type="matrix" values="0   0   0   0   0                0   1   0   0   0                0   0   0   0   0                0   0   0   1   0 "></feColorMatrix>    </filter></defs></svg>